<svg width="120" height="100" viewBox="0 0 120 100" fill="none" xmlns="http://www.w3.org/2000/svg">
	<g id="character">
		<g id="body">
			<g id="body mask" clip-path="url(#clip0_1_2)">
				<path id="person" d="M47.5719 100V47.7613C41.6351 46.1813 36.8889 42.8731 33.3333 37.8369C29.7778 32.8006 28 27.1883 28 21H35.8287C35.8287 26.4642 37.5739 31.1219 41.0642 34.9731C44.5545 38.8244 49.0071 40.75 54.422 40.75H64.208C66.1651 40.75 67.9918 41.1121 69.6881 41.8363C71.3843 42.5604 72.9174 43.6138 74.2875 44.9963L92 62.87L86.5199 68.4L71.0581 52.7975V100H63.2294V76.3H55.4006V100H47.5719ZM59.315 36.8C57.1621 36.8 55.3191 36.0265 53.7859 34.4794C52.2528 32.9323 51.4862 31.0725 51.4862 28.9C51.4862 26.7275 52.2528 24.8677 53.7859 23.3206C55.3191 21.7735 57.1621 21 59.315 21C61.4679 21 63.3109 21.7735 64.844 23.3206C66.3772 24.8677 67.1437 26.7275 67.1437 28.9C67.1437 31.0725 66.3772 32.9323 64.844 34.4794C63.3109 36.0265 61.4679 36.8 59.315 36.8Z" fill="black"/>
			</g>
		</g>
		
		<g id="arm">
			<path id="forearm"
				d="M20 26L29.5 40.5L34 35.5L22.5 24L20 26Z"
				fill="black"
			/>
			<path
				id="arm_2"
				d="M29.5 40.5L47.5 48L49.5 40L31.5 34.5L29.5 40.5Z"
				fill="black"
			/>
		</g>
	</g>

	<defs>
		<clipPath id="clip0_1_2">
			<rect width="45" height="79" fill="white" transform="translate(47 21)"/>
		</clipPath>
	</defs>
</svg>
