<svg width="120" height="100" viewBox="0 0 120 100" fill="none" xmlns="http://www.w3.org/2000/svg">
	<g id="character v2">
		<g id="body">
			<path id="torso" 
				d="M71 76H47.5V48V48C47.5 41.5 47.5 39.7857 49 40C52.5 40.5 59 41 65 41C71 41 71 43 71 48V76Z"
			/>
			<path id="left-arm" 
				d="M75.5 46C73.9 44 70.8333 42.5 69.5 42V51L86.5 68.5L90 65C85.8333 59.5 77.1 48 75.5 46Z"
			/>
			<path id="right-leg" 
				d="M49.5 100L47.5 76H54.5L55.5 100H49.5Z"
			/>
			<path id="right-leg_2" 
				d="M66 100L64 76H71L72 100H66Z"
			/>
			<path id="head" 
				d="M59 21.5C59 21.5 51.5 21.5 51.5 29C51.5 36.5 59 36.5 59 36.5C59 36.5 66.5 36.5 66.5 29C66.5 21.5 59 21.5 59 21.5Z"
			/>
		</g>

		<g id="right-arm">
			<path id="forearm" 
				d="M20 26L29.5 40.5L34 35.5L22.5 24L20 26Z" 
			
			/>

			<path id="arm_2" 
				d="M29.5 40.5L47.5 48L49.5 40L31.5 34.5L29.5 40.5Z" 
			/>
		</g>
	</g>
</svg>
